<?xml version="1.0" encoding="UTF-8" standalone="no"?>
<!-- Created with Inkscape (http://www.inkscape.org/) -->

<svg
   xmlns:dc="http://purl.org/dc/elements/1.1/"
   xmlns:cc="http://creativecommons.org/ns#"
   xmlns:rdf="http://www.w3.org/1999/02/22-rdf-syntax-ns#"
   xmlns:svg="http://www.w3.org/2000/svg"
   xmlns="http://www.w3.org/2000/svg"
   xmlns:sodipodi="http://sodipodi.sourceforge.net/DTD/sodipodi-0.dtd"
   xmlns:inkscape="http://www.inkscape.org/namespaces/inkscape"
   width="355.6832mm"
   height="355.6832mm"
   viewBox="0 0 355.6832 355.6832"
   version="1.1"
   fill="#FF2350"
   id="svg8"
   inkscape:version="0.92.4 (5da689c313, 2019-01-14)"
   sodipodi:docname="Jedi_Order.svg" >
  <defs
     id="defs2" />
  <sodipodi:namedview
     id="base"
     pagecolor="#ffffff"
     bordercolor="#666666"
     borderopacity="1.0"
     inkscape:pageopacity="0.0"
     inkscape:pageshadow="2"
     inkscape:zoom="0.175"
     inkscape:cx="2452.9232"
     inkscape:cy="667.44184"
     inkscape:document-units="mm"
     inkscape:current-layer="layer1"
     showgrid="false"
     inkscape:pagecheckerboard="true"
     fit-margin-top="0"
     fit-margin-left="0"
     fit-margin-right="0"
     fit-margin-bottom="0"
     inkscape:window-width="1920"
     inkscape:window-height="1001"
     inkscape:window-x="-9"
     inkscape:window-y="-9"
     inkscape:window-maximized="1" />
  <metadata
     id="metadata5">
    <rdf:RDF>
      <cc:Work
         rdf:about="">
        <dc:format>image/svg+xml</dc:format>
        <dc:type
           rdf:resource="http://purl.org/dc/dcmitype/StillImage" />
        <dc:title></dc:title>
      </cc:Work>
    </rdf:RDF>
  </metadata>
  <g
     inkscape:label="Calque 1"
     inkscape:groupmode="layer"
     id="layer1"
     transform="translate(75.788021,10.865404)">
    <g
       transform="matrix(0.26458333,0,0,0.26458333,-75.796537,-10.876005)"
       id="g22">
      <path
         inkscape:connector-curvature="0"
         d="m 653.86665,862.08938 c -11.53467,-16.83467 -73.068,-106.64533 -73.068,-106.64533 l 46.896,128.97999 -145.388,21.10667 145.388,21.10667 -56.28,110.21732 c 0,0 70.216,-73.81599 80.136,-84.24666 -4.088,159.82136 -5.09333,199.15336 -5.09333,199.15336 0,0 -358.78666,-166.49869 -159.46133,-534.67602 0,0 -248.572,-274.37065 -23.45067,-443.21465 0,0 -384.582255,232.15866 -140.69999,630.82132 0,0 -201.67187,-196.984 -96.14667,-396.31866 0,0 -182.910128,257.95999 39.86533,541.71599 0,0 -60.96933,-37.52534 -114.90399,-180.572 0,0 39.34266,425.84802 515.78398,431.43602 -10e-4,0.056 -10e-4,0.056 -10e-4,0.056 1.588,0 3.172,-0.01 4.74933,-0.015 1.57734,0.01 3.16134,0.015 4.748,0.015 0,0 0,0 0,-0.056 476.44129,-5.588 515.78399,-431.43602 515.78399,-431.43602 -53.9347,143.04666 -114.904,180.572 -114.904,180.572 222.776,-283.756 39.8653,-541.71599 39.8653,-541.71599 105.5253,199.33466 -96.1467,396.31866 -96.1467,396.31866 243.8827,-398.66266 -140.69993,-630.82132 -140.69993,-630.82132 225.12263,168.844 -23.45066,443.21465 -23.45066,443.21465 199.32529,368.17733 -159.46,534.67602 -159.46,534.67602 0,0 -1.00666,-39.332 -5.09466,-199.15336 9.92,10.43067 80.13599,84.24666 80.13599,84.24666 L 716.68932,926.63738 862.07731,905.53071 716.68932,884.42404 763.58531,755.44405 c 0,0 -61.53333,89.81066 -73.06799,106.64533 -5.22267,-204.14666 -18.17867,-710.67065 -18.24134,-713.06132 -0.024,-5.61733 -0.024,-5.648 -0.024,-5.648 0,0 0,0.005 -0.06,2.33467 -0.06,-2.32933 -0.06,-2.33467 -0.06,-2.33467 0,0 0,0.0307 -0.0253,5.648 -0.10133,3.99467 -13.02933,509.37732 -18.24,713.06132"
         style="fill:#000000;fill-opacity:1;fill-rule:evenodd;stroke:none;stroke-width:0.13333333"
         id="path14" />
      <path
         inkscape:connector-curvature="0"
         d="M 672.19198,0.20006694 C 301.05733,0.20006694 0.192188,301.05873 0.192188,672.19472 c 0,371.13468 300.865142,671.99978 671.999792,671.99978 371.13602,0 671.99462,-300.8651 671.99462,-671.99978 0,-371.13599 -300.8586,-671.99465306 -671.99462,-671.99465306 z"
         style="fill:none;stroke:#000000;stroke-width:0.31999999;stroke-linecap:butt;stroke-linejoin:miter;stroke-miterlimit:10;stroke-dasharray:none;stroke-opacity:1"
         id="path16" />
      <path
         inkscape:connector-curvature="0"
         d="M 672.19198,0.20006694 C 301.06266,0.20006694 0.192188,301.06539 0.192188,672.19472 c 0,371.12928 300.870472,671.99978 671.999792,671.99978 371.12932,0 671.99462,-300.8705 671.99462,-671.99978 0,-371.12933 -300.8653,-671.99465306 -671.99462,-671.99465306 z m 0,80.50533106 c 326.66533,0 591.48932,264.823992 591.48932,591.489322 0,326.66532 -264.82399,591.48928 -591.48932,591.48928 -326.66532,0 -591.489315,-264.82396 -591.489315,-591.48928 0,-326.66533 264.823995,-591.489322 591.489315,-591.489322"
         style="fill:#000000;fill-opacity:1;fill-rule:evenodd;stroke:none;stroke-width:0.13333333"
         id="path18" />
    </g>
  </g>
</svg>
